<svg xmlns="http://www.w3.org/2000/svg" viewBox="0 0 45.01 45.01"><defs><style>.cls-1{fill:#6c757d;}</style></defs><title>Asset 5</title><g id="Layer_2" data-name="Layer 2"><g id="Capa_1" data-name="Capa 1"><path class="cls-1" d="M0,0V45H45V0ZM42.37,42.37H2.64V2.64H42.37Z"/><path class="cls-1" d="M5.27,5.27V39.74H39.74V5.27ZM20.16,31l-3.55-5.36L13,31H9.88l5.17-7.39L9.71,16h3.17l3.73,5.57L20.32,16h3.15l-5.34,7.59L23.3,31Zm14.17.14A1.81,1.81,0,0,1,32.48,29a4.44,4.44,0,0,1-3.84,2.13c-3.25,0-5.26-2.71-5.26-5.74,0-3.44,2.32-5.72,4.94-5.72a4.27,4.27,0,0,1,3.73,2.13V15.54h2.83V27.7c0,.29.42.83.66.84V31h0A7.22,7.22,0,0,1,34.33,31.09Z"/><path class="cls-1" d="M29.21,22.1c-1.93,0-2.89,1.92-2.89,3.38a3.17,3.17,0,0,0,3.06,3.27,3,3,0,0,0,2.68-1.86V24.26C31.94,24,30.93,22.1,29.21,22.1Z"/></g></g></svg>