<svg xmlns="http://www.w3.org/2000/svg" viewBox="0 0 44.71 44.71"><defs><style>.cls-1{fill:#6c757d;}</style></defs><title>Asset 10</title><g id="Layer_2" data-name="Layer 2"><g id="Capa_1" data-name="Capa 1"><path class="cls-1" d="M0,0V44.71H44.71V0ZM42.09,42.09H2.62V2.62H42.09Z"/><path class="cls-1" d="M25.05,22c-1.91,0-2.87,1.9-2.87,3.36a3.15,3.15,0,0,0,3,3.25,3,3,0,0,0,2.66-1.85V24.09C27.77,23.79,26.76,22,25.05,22Z"/><path class="cls-1" d="M5.24,5.24V39.47H39.47V5.24Zm12,25.5H14.34V15.86h2.89Zm12.91.14a1.81,1.81,0,0,1-1.84-2.05,4.38,4.38,0,0,1-3.81,2.11c-3.23,0-5.22-2.68-5.22-5.7,0-3.41,2.3-5.67,4.9-5.67a4.24,4.24,0,0,1,3.71,2.11V15.44h2.81V27.51c0,.29.41.82.65.84v2.39h0A7,7,0,0,1,30.14,30.88Z"/></g></g></svg>