<svg xmlns="http://www.w3.org/2000/svg" viewBox="0 0 38.97 42.67"><defs><style>.cls-1{fill:#6c757d;}</style></defs><title>Asset 13</title><g id="Layer_2" data-name="Layer 2"><g id="Capa_1" data-name="Capa 1"><path class="cls-1" d="M16.69,27.66l2.72-15.89-6,15.89H10.11l2.82-13.49a4.17,4.17,0,0,0,.1-.79,3.47,3.47,0,0,0-.3-1.09L10.15,5.7h2.7a1.58,1.58,0,0,1,.65.09,1.45,1.45,0,0,1,.44.34l5.54,5.4q-1.28-3-2.8-5.82c.91.14,1.88-.2,2.75.09a3.83,3.83,0,0,1,1.05.62l5.24,3.85c.18-.33,0-.72-.24-1l-2.3-3.49A8.16,8.16,0,0,1,26.73,6a7.58,7.58,0,0,1,1.11.54l4.45,2.44c.12.06-1.28,4.46-1.4,4.88l-1.43,5-1.43,5-.71,2.49a5.05,5.05,0,0,1-.34,1.2c-.21.31-.59.2-1,.2H22.91L25.45,12,16.69,5.7,25.45,12l-5,15.7ZM35.36,0H3.62A3.62,3.62,0,0,0,0,3.61V39.06a3.61,3.61,0,0,0,3.62,3.61H35.36A3.61,3.61,0,0,0,39,39.06V3.61A3.61,3.61,0,0,0,35.36,0ZM15.51,37.47l-1.46-.3V33.36a1.09,1.09,0,0,0-1.16-1.11,1.08,1.08,0,0,0-1.16,1.11v4.11l-1.46-.3V33.36A1.09,1.09,0,0,0,9.1,32.25a1.09,1.09,0,0,0-1.17,1.11v4.11l-1.46-.3v-6l1.46-.28v.67a2.2,2.2,0,0,1,1.73-.81,2.15,2.15,0,0,1,1.67.89,2.35,2.35,0,0,1,1.88-.87,2.27,2.27,0,0,1,2.3,2.56Zm3.81,0-1.46-.3v-6l1.46-.28Zm-.69-7.57a.93.93,0,0,1,0-1.86.93.93,0,0,1,0,1.86Zm6.54,2.4-.84.15a1.27,1.27,0,0,0-1.19,1.35v3.67l-1.46-.3V33.58c0-1.78,1-2.31,2.65-2.68l.84-.14Zm4.57,5.31a3.21,3.21,0,0,1-3.38-3.42,3.21,3.21,0,0,1,3.38-3.41A3.15,3.15,0,0,1,33,34.19,3.15,3.15,0,0,1,29.74,37.61Zm0-5.45a1.86,1.86,0,0,0-1.89,2,1.86,1.86,0,0,0,1.89,2,1.8,1.8,0,0,0,1.76-2A1.8,1.8,0,0,0,29.74,32.16Z"/></g></g></svg>