<svg xmlns="http://www.w3.org/2000/svg" viewBox="0 0 45.2 45.2"><defs><style>.cls-1{fill:#6c757d;}</style></defs><title>Asset 11</title><g id="Layer_2" data-name="Layer 2"><g id="Capa_1" data-name="Capa 1"><path class="cls-1" d="M5.3,5.3V39.9H39.9V5.3ZM20.34,26H16.78v5H13.85V16h6.38A5,5,0,0,1,25,21,4.86,4.86,0,0,1,20.34,26Zm9.28-1.67v6.71H26.78V20h2.6v2.37c.2-.38,1.44-2.76,4-2.5v2.59h0C30.89,22.43,29.91,23.72,29.62,24.36Z"/><path class="cls-1" d="M20,18.59H16.78v4.88h3.39c1,0,1.88-1,1.88-2.44A2.22,2.22,0,0,0,20,18.59Z"/><path class="cls-1" d="M0,0V45.2H45.2V0ZM42.55,42.55H2.65V2.65h39.9Z"/></g></g></svg>