<svg xmlns="http://www.w3.org/2000/svg" viewBox="0 0 45.85 45.85"><defs><style>.cls-1{fill:#6c757d;}</style></defs><title>Asset 6</title><g id="Layer_2" data-name="Layer 2"><g id="Capa_1" data-name="Capa 1"><path class="cls-1" d="M0,0V45.85H45.85V0ZM43.16,43.16H2.69V2.69H43.16Z"/><polygon class="cls-1" points="16.8 19.64 14.6 25.63 18.9 25.63 16.8 19.64"/><path class="cls-1" d="M30.21,22.15A2.93,2.93,0,0,0,27.3,25h5.85A2.9,2.9,0,0,0,30.21,22.15Z"/><path class="cls-1" d="M5.37,5.37V40.48H40.48V5.37ZM20.86,31.52l-1.42-3.8H14.11l-1.4,3.8H9.66l5.82-15.26h2.63l5.8,15.26Zm15.19-4.7h-8.7a3,3,0,0,0,3,2.81A3,3,0,0,0,33,28.11l2.47.68a5.49,5.49,0,0,1-5.24,2.95,5.84,5.84,0,1,1,0-11.67,5.62,5.62,0,0,1,5.87,5.78A9.2,9.2,0,0,1,36.05,26.82Z"/></g></g></svg>