<svg xmlns="http://www.w3.org/2000/svg" viewBox="0 0 41.11 44.45"><defs><style>.cls-1{fill:#6c757d;}</style></defs><title>Asset 12</title><g id="Layer_2" data-name="Layer 2"><g id="Capa_1" data-name="Capa 1"><path class="cls-1" d="M27,0h.15c4.05,3.16,14,11.13,14,11.13s-2.13,18-3,25.23c-9.58,2.69-19.07,5.47-28.72,8.09C8.56,41.58,3.18,27,3.18,27S.86,9.44,0,3.56C9,2.33,18.1,1.28,27,0Zm-.67,2.67q-11.65,1.59-23.45,3C3.38,7,4,8.22,4.45,9.5c4.83-.75,9.92-1.4,14.85-2.16a9.54,9.54,0,0,1,2.15-.29c.42.1,1.21,1,1.63,1.49a62.09,62.09,0,0,0,4.75,4.82c3.22-.64,6.55-1.16,9.79-1.78C34.17,8.59,30.09,5.6,26.34,2.67Zm-4.6,11.2c-5.21.78-10.7,1.92-16.1,2.75.45,1.48,1,2.84,1.56,4.23,3-.46,5.76-1.11,8.68-1.63.85,1.22,1.45,2.71,2.37,3.86,3.07-.7,6.21-1.31,9.28-2C25.83,18.74,23.72,16.18,21.74,13.87ZM17.59,28.94c-.23-.41-.82-2.2-1.26-2.08-2.28.64-5.28,1.17-7.87,1.78.31,1.4,1,3,1.48,4.53,3-.61,5.78-1.44,8.76-2.08A14.71,14.71,0,0,0,17.59,28.94Z"/></g></g></svg>