<svg xmlns="http://www.w3.org/2000/svg" viewBox="0 0 45.01 45.01"><defs><style>.cls-1{fill:#6c757d;}</style></defs><title>Asset 7</title><g id="Layer_2" data-name="Layer 2"><g id="Capa_1" data-name="Capa 1"><path class="cls-1" d="M0,0V45H45V0ZM42.37,42.37H2.64V2.64H42.37Z"/><path class="cls-1" d="M18.54,18.52H15.3v4.85h3.37c1,0,1.88-.95,1.88-2.43A2.2,2.2,0,0,0,18.54,18.52Z"/><path class="cls-1" d="M5.27,5.27V39.74H39.74V5.27ZM18.84,25.92H15.3v5H12.38V16h6.35a5,5,0,0,1,4.77,5A4.83,4.83,0,0,1,18.84,25.92Zm10.59,5.24a8,8,0,0,1-5-1.71l1.06-1.77a7.28,7.28,0,0,0,3.88,1.45c1.07,0,1.81-.45,1.81-1.22,0-.95-1.57-1.26-2.42-1.5s-4-.65-4-3.08,2-3.65,4.35-3.65a6.12,6.12,0,0,1,4.32,1.52l-1.14,1.71a5.64,5.64,0,0,0-3.2-1.23c-1,0-1.69.44-1.69,1.25,0,1,1.76,1.29,2.17,1.39.76.2,4.28.74,4.28,3.33C33.9,30.73,30.81,31.16,29.43,31.16Z"/></g></g></svg>