<svg id="Capa_1" enable-background="new 0 0 505.399 505.399" height="512" viewBox="0 0 505.399 505.399" width="512" xmlns="http://www.w3.org/2000/svg"><g><path d="m283.711 366.875-13.436-20.901v-88.759h-34.151v88.759l-13.436 20.901-17.599 22.414h95.896z" fill="#fbe88c"/><path d="m283.711 366.875-9.643-15h-21.195c-1.427 0-2.289-1.579-1.517-2.779l.051-.079c1.277-1.987 1.956-4.299 1.956-6.661v-25.294c0-3.962 3.096-7.227 7.052-7.446 3.307-.183 6.595-.483 9.861-.898v-51.502h-16.912-6.565-10.673v88.759l-13.436 20.901-17.6 22.414h10.383 6.855 78.658z" fill="#fbe372"/><g id="XMLID_3_"><g><path d="m450.68 48.53c4.25 4.44 6.52 10.51 6.24 16.65l-4.25 92.81c-2.3 50.45-43.67 89.96-94.17 89.96h-211.6c-50.5 0-91.87-39.51-94.17-89.96l-4.25-92.81c-.28-6.14 1.99-12.21 6.24-16.65 4.24-4.45 10.2-7 16.35-7h363.26c6.15 0 12.11 2.55 16.35 7zm-27.97 108.09 3.89-85.09h-347.8l3.89 85.09c1.44 31.42 25.11 56.61 55.44 60.73h229.14c30.33-4.12 54-29.31 55.44-60.73z" fill="#f9de58"/></g></g><path d="m374.762 13.294h-244.125c-7.981 0-14.26 6.818-13.604 14.773l12.672 153.512c5.284 64.005 58.772 113.259 122.994 113.259 64.222 0 117.71-49.255 122.994-113.259l12.672-153.512c.657-7.954-5.621-14.773-13.603-14.773z" fill="#fbe88c"/><path d="m166.447 166.35-13.975-153.056h-21.835c-7.981 0-14.26 6.818-13.604 14.773l12.672 153.512c5.284 64.004 58.772 113.259 122.994 113.259 18.874 0 36.819-4.259 52.888-11.891-72.723-.428-133.148-50.98-139.14-116.597z" fill="#fbe372"/><path d="m309.144 366.875h-111.889c-7.353 0-13.313 5.96-13.313 13.313v39.93h138.515v-39.93c0-7.352-5.96-13.313-13.313-13.313z" fill="#fbe372"/><path d="m200.425 393.574c0-7.353 5.96-13.313 13.313-13.313h108.719v-.073c0-7.353-5.96-13.313-13.313-13.313h-111.889c-7.353 0-13.313 5.96-13.313 13.313v39.93h16.482v-26.544z" fill="#f9de58"/><path d="m368.386 405.118h-231.373c-11.06 0-20.026 8.966-20.026 20.026v63.653c0 5.027 4.075 9.101 9.101 9.101h253.224c5.027 0 9.101-4.075 9.101-9.101v-63.653c0-11.06-8.966-20.026-20.027-20.026z" fill="#a59ca6"/><g><path d="m399.972 505.399h-294.545c-4.142 0-7.5-3.358-7.5-7.5s3.358-7.5 7.5-7.5h294.545c4.142 0 7.5 3.358 7.5 7.5s-3.358 7.5-7.5 7.5z" fill="#8f8390"/></g><path d="m146.229 447.284c0-11.06 8.966-20.026 20.026-20.026h222.158v-2.113c0-11.06-8.966-20.026-20.026-20.026h-231.374c-11.06 0-20.026 8.966-20.026 20.026v63.653c0 5.027 4.075 9.101 9.101 9.101h20.141z" fill="#8f8390"/><path d="m324.333 469.513h-143.267c-3.228 0-5.846-2.617-5.846-5.846v-24.318c0-3.228 2.617-5.846 5.846-5.846h143.266c3.228 0 5.846 2.617 5.846 5.846v24.318c0 3.229-2.617 5.846-5.845 5.846z" fill="#fdf5cb"/><g><path d="m359.17 462.595c-4.142 0-7.5-3.358-7.5-7.5v-7.173c0-4.142 3.358-7.5 7.5-7.5s7.5 3.358 7.5 7.5v7.173c0 4.142-3.358 7.5-7.5 7.5z" fill="#fdf5cb"/></g><g><path d="m146.229 462.595c-4.142 0-7.5-3.358-7.5-7.5v-7.173c0-4.142 3.358-7.5 7.5-7.5s7.5 3.358 7.5 7.5v7.173c0 4.142-3.358 7.5-7.5 7.5z" fill="#fdf5cb"/></g><circle cx="252.7" cy="140.711" fill="#fdf5cb" r="84.325"/><path d="m256.655 89.028 13.49 27.334c.561 1.137 1.646 1.926 2.901 2.108l30.165 4.383c3.161.459 4.423 4.343 2.136 6.573l-21.828 21.277c-.908.885-1.323 2.161-1.108 3.411l5.153 30.043c.54 3.148-2.764 5.548-5.591 4.062l-26.981-14.185c-1.123-.59-2.464-.59-3.586 0l-26.981 14.185c-2.827 1.486-6.131-.914-5.591-4.062l5.153-30.043c.214-1.25-.2-2.525-1.108-3.411l-21.828-21.277c-2.287-2.229-1.025-6.113 2.136-6.573l30.165-4.383c1.255-.182 2.34-.971 2.901-2.108l13.49-27.334c1.415-2.864 5.498-2.864 6.912 0z" fill="#e17983"/><path d="m189.703 1.496c-3.481 8.869-9.96 15.195-19.115 19.246-1.963.869-1.892 3.659.102 4.453 8.793 3.502 15.3 9.69 18.938 19.226.755 1.978 3.445 2.146 4.426.27 4.454-8.519 11.327-14.892 20.261-19.435 1.77-.9 1.791-3.388.036-4.316-8.968-4.745-15.752-11.276-20.28-19.651-.973-1.801-3.62-1.699-4.368.207z" fill="#f9de58"/></g></svg>