<svg width="288" height="288" viewBox="0 0 288 288" fill="none" xmlns="http://www.w3.org/2000/svg">
<path d="M144 284C221.32 284 284 221.32 284 144C284 66.6801 221.32 4 144 4C66.6801 4 4 66.6801 4 144C4 221.32 66.6801 284 144 284Z" fill="#FFE500" stroke="black" stroke-width="8"/>
<path d="M144 259.658C207.877 259.658 259.659 207.876 259.659 143.999C259.659 80.1221 207.877 28.3398 144 28.3398C80.1231 28.3398 28.3408 80.1221 28.3408 143.999C28.3408 207.876 80.1231 259.658 144 259.658Z" stroke="black" stroke-width="17"/>
<path d="M47.5 207.999L145.629 68.1641V229.969L237.572 75.7657" stroke="black" stroke-width="30" stroke-linejoin="round"/>
</svg>
